<svg width="19" height="16" viewBox="0 0 19 16" fill="none" xmlns="http://www.w3.org/2000/svg">
<path fill-rule="evenodd" clip-rule="evenodd" d="M0.435028 2.16667C0.435028 1.24619 1.18122 0.5 2.10169 0.5H17.1017C18.0222 0.5 18.7684 1.2462 18.7684 2.16667V13.8333C18.7684 14.7538 18.0222 15.5 17.1017 15.5H2.10169C1.18123 15.5 0.435028 14.7538 0.435028 13.8333V2.16667ZM2.10169 5.5V13.8333H17.1017V5.5H2.10169ZM17.1017 3.83333H2.10169V2.16667H17.1017V3.83333ZM10.0184 11.3333C10.0184 10.8731 10.3915 10.5 10.8517 10.5H14.6017C15.0619 10.5 15.435 10.8731 15.435 11.3333C15.435 11.7936 15.0619 12.1667 14.6017 12.1667H10.8517C10.3915 12.1667 10.0184 11.7936 10.0184 11.3333Z" fill="#FF054D"/>
</svg>
