<svg width="21" height="19" viewBox="0 0 21 19" fill="none" xmlns="http://www.w3.org/2000/svg">
<path fill-rule="evenodd" clip-rule="evenodd" d="M0.591611 1.08191C0.754849 0.727233 1.10958 0.5 1.50001 0.5H19.5C19.8904 0.5 20.2452 0.727233 20.4084 1.08191C20.5717 1.43658 20.5135 1.85382 20.2596 2.15039L13.3 10.2785V18C13.3 18.3457 13.1215 18.6669 12.8278 18.8493C12.5342 19.0318 12.1672 19.0497 11.8572 18.8966L8.25723 17.1189C7.91602 16.9503 7.70001 16.6028 7.70001 16.2222V10.2785L0.740418 2.15039C0.486481 1.85382 0.428372 1.43658 0.591611 1.08191ZM3.67274 2.5L9.45961 9.25849C9.61475 9.43968 9.70001 9.67036 9.70001 9.90889V15.6008L11.3 16.3909V9.90889C11.3 9.67036 11.3853 9.43968 11.5404 9.25849L17.3273 2.5H3.67274Z" fill="white"/>
</svg>
