<svg width="23" height="14" viewBox="0 0 23 14" fill="none" xmlns="http://www.w3.org/2000/svg">
<path fill-rule="evenodd" clip-rule="evenodd" d="M0.333374 1C0.333374 0.447715 0.781089 0 1.33337 0H21.3334C21.8857 0 22.3334 0.447715 22.3334 1V13C22.3334 13.5523 21.8857 14 21.3334 14H1.33337C0.781089 14 0.333374 13.5523 0.333374 13V1ZM2.33337 5.89998V8.10002C4.29251 8.4977 5.83568 10.0409 6.23336 12H16.4334C16.8311 10.0409 18.3742 8.4977 20.3334 8.10002V5.89998C18.3742 5.5023 16.8311 3.95914 16.4334 2H6.23336C5.83568 3.95914 4.29251 5.5023 2.33337 5.89998ZM4.16267 2H2.33337V3.8293C3.18579 3.52801 3.86139 2.85242 4.16267 2ZM18.5041 2C18.8054 2.85242 19.481 3.52801 20.3334 3.8293V2H18.5041ZM20.3334 10.1707C19.481 10.472 18.8054 11.1476 18.5041 12H20.3334V10.1707ZM4.16267 12C3.86139 11.1476 3.18579 10.472 2.33337 10.1707V12H4.16267ZM7.83337 7C7.83337 4.96932 9.23742 3 11.3334 3C13.4293 3 14.8334 4.96932 14.8334 7C14.8334 9.03068 13.4293 11 11.3334 11C9.23742 11 7.83337 9.03068 7.83337 7ZM11.3334 5C10.6679 5 9.83337 5.71698 9.83337 7C9.83337 8.28302 10.6679 9 11.3334 9C11.9988 9 12.8334 8.28302 12.8334 7C12.8334 5.71698 11.9988 5 11.3334 5Z" fill="#A0A0A0"/>
</svg>
