<svg width="24" height="22" viewBox="0 0 24 22" fill="none" xmlns="http://www.w3.org/2000/svg">
<path d="M22.2167 20.375V21.4167C22.792 21.4167 23.2584 20.9503 23.2584 20.375H22.2167ZM1.38336 20.375H0.34169C0.34169 20.9503 0.80806 21.4167 1.38336 21.4167V20.375ZM1.38336 13.3438L1.89404 12.4359C1.5715 12.2545 1.17692 12.2578 0.857477 12.4446C0.538029 12.6314 0.34169 12.9737 0.34169 13.3438H1.38336ZM5.55002 15.6875L5.03935 16.5954C5.51414 16.8625 6.11455 16.7186 6.41674 16.2653L5.55002 15.6875ZM8.67502 11L9.00445 10.0118C8.55877 9.86325 8.06888 10.0314 7.8083 10.4222L8.67502 11ZM11.8 12.0417L11.4706 13.0299C11.8687 13.1626 12.3076 13.0435 12.584 12.7276L11.8 12.0417ZM15.4459 7.87502L16.1127 7.07482C15.6783 6.71273 15.0343 6.76346 14.6619 7.18909L15.4459 7.87502ZM18.5709 10.4792L17.904 11.2794C18.3385 11.6415 18.9824 11.5908 19.3548 11.1651L18.5709 10.4792ZM22.2167 6.31252H23.2584C23.2584 5.87857 22.9893 5.49008 22.5831 5.33742C22.1768 5.18476 21.7185 5.29997 21.4327 5.62659L22.2167 6.31252ZM22.2167 19.3334H1.38336V21.4167H22.2167V19.3334ZM2.42502 20.375V13.3438L0.34169 13.3438V20.375H2.42502ZM0.872669 14.2517L5.03935 16.5954L6.0607 14.7796L1.89404 12.4359L0.872669 14.2517ZM6.41674 16.2653L9.54174 11.5778L7.8083 10.4222L4.6833 15.1097L6.41674 16.2653ZM8.3456 11.9883L11.4706 13.0299L12.1294 11.0535L9.00445 10.0118L8.3456 11.9883ZM12.584 12.7276L16.2298 8.56096L14.6619 7.18909L11.0161 11.3558L12.584 12.7276ZM14.779 8.67523L17.904 11.2794L19.2377 9.67898L16.1127 7.07482L14.779 8.67523ZM19.3548 11.1651L23.0006 6.99846L21.4327 5.62659L17.7869 9.79325L19.3548 11.1651ZM21.175 6.31252V20.375H23.2584V6.31252H21.175Z" fill="#D4D4D4"/>
<path d="M1.38336 7.35423L2.06126 6.56336C1.7524 6.29862 1.31767 6.23789 0.948091 6.40789C0.578503 6.57784 0.34169 6.94742 0.34169 7.35423H1.38336ZM5.02919 10.4792L4.35128 11.2701C4.57565 11.4625 4.87117 11.5504 5.16419 11.5121C5.45721 11.4738 5.72013 11.3129 5.88758 11.0693L5.02919 10.4792ZM7.89377 6.31258L8.35961 5.38086C7.89481 5.14846 7.32981 5.29419 7.03539 5.72242L7.89377 6.31258ZM11.0188 7.87508L10.5529 8.80674C10.9638 9.01221 11.4607 8.92424 11.7761 8.59029L11.0188 7.87508ZM15.4459 3.18756L16.1055 2.38137C15.6825 2.03525 15.0638 2.07497 14.6886 2.47234L15.4459 3.18756ZM18.3104 5.53133L17.6508 6.33752C18.065 6.67643 18.6686 6.64633 19.047 6.26789L18.3104 5.53133ZM22.2167 1.62507H23.2584C23.2584 1.20376 23.0046 0.823925 22.6153 0.662696C22.2261 0.501467 21.778 0.590587 21.4801 0.888503L22.2167 1.62507ZM0.34169 13.3438C0.34169 13.9191 0.80806 14.3854 1.38336 14.3854C1.95865 14.3854 2.42502 13.9191 2.42502 13.3438L0.34169 13.3438ZM21.175 6.57294C21.175 7.14825 21.6414 7.61461 22.2167 7.61461C22.792 7.61461 23.2584 7.14825 23.2584 6.57294H21.175ZM0.70545 8.14513L4.35128 11.2701L5.70711 9.68836L2.06126 6.56336L0.70545 8.14513ZM5.88758 11.0693L8.75216 6.90268L7.03539 5.72242L4.17081 9.88909L5.88758 11.0693ZM7.42794 7.24424L10.5529 8.80674L11.4846 6.94336L8.35961 5.38086L7.42794 7.24424ZM11.7761 8.59029L16.2031 3.90278L14.6886 2.47234L10.2615 7.15982L11.7761 8.59029ZM14.7862 3.99377L17.6508 6.33752L18.9701 4.72513L16.1055 2.38137L14.7862 3.99377ZM19.047 6.26789L22.9533 2.36164L21.4801 0.888503L17.5739 4.79476L19.047 6.26789ZM0.34169 7.35423V13.3438L2.42502 13.3438V7.35424L0.34169 7.35423ZM21.175 1.62507V6.57294H23.2584V1.62507H21.175Z" fill="#D4D4D4"/>
</svg>
