<svg width="28" height="24" viewBox="0 0 28 24" fill="none" xmlns="http://www.w3.org/2000/svg">
<path fill-rule="evenodd" clip-rule="evenodd" d="M0.25 3.25C0.25 1.86929 1.36929 0.75 2.75 0.75H25.25C26.6307 0.75 27.75 1.8693 27.75 3.25V20.75C27.75 22.1307 26.6307 23.25 25.25 23.25H2.75C1.3693 23.25 0.25 22.1307 0.25 20.75V3.25ZM2.75 8.25V20.75H25.25V8.25H2.75ZM25.25 5.75H2.75V3.25H25.25V5.75ZM14.625 17C14.625 16.3096 15.1846 15.75 15.875 15.75H21.5C22.1904 15.75 22.75 16.3096 22.75 17C22.75 17.6904 22.1904 18.25 21.5 18.25H15.875C15.1846 18.25 14.625 17.6904 14.625 17Z" fill="#D4D4D4"/>
</svg>
