<svg width="24" height="22" viewBox="0 0 24 22" fill="none" xmlns="http://www.w3.org/2000/svg">
<path fill-rule="evenodd" clip-rule="evenodd" d="M11.7493 0.811575C12.1297 0.507226 12.6703 0.507226 13.0507 0.811575L20.863 7.0614C20.8631 7.06146 20.8629 7.06134 20.863 7.0614L23.4674 9.14491C23.9166 9.50429 23.9895 10.1598 23.6301 10.609C23.2707 11.0583 22.6152 11.1311 22.1659 10.7717L21.2542 10.0423V20.375C21.2542 20.9503 20.7878 21.4166 20.2125 21.4166H4.58749C4.0122 21.4166 3.54583 20.9503 3.54583 20.375V10.0423L2.63405 10.7717C2.18482 11.1311 1.5293 11.0583 1.16992 10.609C0.810535 10.1598 0.88337 9.50429 1.3326 9.14491L3.93677 7.06157C3.93687 7.06149 3.93666 7.06166 3.93677 7.06157L11.7493 0.811575ZM5.62916 8.37563L12.4 2.95896L19.1708 8.37563V19.3333H16.0458V13.6041C16.0458 13.0289 15.5795 12.5625 15.0042 12.5625H9.79583C9.22053 12.5625 8.75416 13.0289 8.75416 13.6041V19.3333H5.62916V8.37563ZM10.8375 19.3333H13.9625V14.6458H10.8375V19.3333Z" fill="#D4D4D4"/>
</svg>
