<svg width="22" height="22" viewBox="0 0 22 22" fill="none" xmlns="http://www.w3.org/2000/svg">
<path fill-rule="evenodd" clip-rule="evenodd" d="M0.18335 2.66665C0.18335 1.51605 1.11609 0.583313 2.26668 0.583313H7.47502C8.62561 0.583313 9.55835 1.51605 9.55835 2.66665V7.87498C9.55835 9.02557 8.62561 9.95831 7.47502 9.95831H2.26668C1.11609 9.95831 0.18335 9.02557 0.18335 7.87498V2.66665ZM7.47502 2.66665H2.26668V7.87498H7.47502V2.66665ZM11.6417 2.66665C11.6417 1.51605 12.5744 0.583313 13.725 0.583313H18.9334C20.0839 0.583313 21.0167 1.51605 21.0167 2.66665V7.87498C21.0167 9.02557 20.0839 9.95831 18.9334 9.95831H13.725C12.5744 9.95831 11.6417 9.02557 11.6417 7.87498V2.66665ZM18.9334 2.66665H13.725V7.87498H18.9334V2.66665ZM0.18335 14.125C0.18335 12.9744 1.11609 12.0416 2.26668 12.0416H7.47502C8.62561 12.0416 9.55835 12.9744 9.55835 14.125V19.3333C9.55835 20.4839 8.62561 21.4166 7.47502 21.4166H2.26668C1.11609 21.4166 0.18335 20.4839 0.18335 19.3333V14.125ZM7.47502 14.125H2.26668V19.3333H7.47502V14.125ZM11.6417 14.125C11.6417 12.9744 12.5744 12.0416 13.725 12.0416H18.9334C20.0839 12.0416 21.0167 12.9744 21.0167 14.125V19.3333C21.0167 20.4839 20.0839 21.4166 18.9334 21.4166H13.725C12.5744 21.4166 11.6417 20.4839 11.6417 19.3333V14.125ZM18.9334 14.125H13.725V19.3333H18.9334V14.125Z" fill="#D4D4D4"/>
</svg>
