<svg width="23" height="22" viewBox="0 0 23 22" fill="none" xmlns="http://www.w3.org/2000/svg">
<path fill-rule="evenodd" clip-rule="evenodd" d="M11.6191 2C8.30536 2 5.61908 4.68629 5.61908 8V17H17.6191V8C17.6191 4.68629 14.9328 2 11.6191 2ZM19.6191 17V8C19.6191 3.58172 16.0374 0 11.6191 0C7.20079 0 3.61908 3.58172 3.61908 8V17H1.61908C1.06679 17 0.61908 17.4477 0.61908 18C0.61908 18.5523 1.06679 19 1.61908 19H8.15452C8.39714 20.6961 9.85586 22 11.6191 22C13.3823 22 14.841 20.6961 15.0836 19H21.6191C22.1714 19 22.6191 18.5523 22.6191 18C22.6191 17.4477 22.1714 17 21.6191 17H19.6191ZM13.0337 19H10.2044C10.4104 19.5826 10.966 20 11.6191 20C12.2722 20 12.8278 19.5826 13.0337 19Z" fill="#454545"/>
</svg>
