<svg width="23" height="22" viewBox="0 0 23 22" fill="none" xmlns="http://www.w3.org/2000/svg">
<path fill-rule="evenodd" clip-rule="evenodd" d="M8.67834 0.397755C9.13619 0.271015 9.62001 0.48389 9.83591 0.907067C10.1679 1.55787 10.8428 2.00001 11.6191 2.00001C12.3954 2.00001 13.0702 1.55787 13.4023 0.907067C13.6181 0.48389 14.102 0.271015 14.5598 0.397755C16.2838 0.874979 17.8365 1.76064 19.1077 2.94266C19.4313 3.2435 19.5191 3.72098 19.3237 4.11721C19.193 4.38228 19.1191 4.68109 19.1191 5C19.1191 6.10457 20.0145 7 21.1191 7L21.1469 6.9998C21.589 6.99349 21.9827 7.27823 22.1152 7.70003C22.4428 8.74302 22.6191 9.85187 22.6191 11C22.6191 11.7577 22.5423 12.4986 22.3958 13.2149C22.2932 13.7167 21.828 14.0598 21.3183 14.0097C21.2531 14.0033 21.1867 14 21.1191 14C20.0145 14 19.1191 14.8954 19.1191 16C19.1191 16.4919 19.2954 16.9401 19.5894 17.2886C19.9197 17.6801 19.9008 18.2578 19.5457 18.6269C18.2477 19.9757 16.6073 20.9948 14.7625 21.544C14.2407 21.6994 13.6904 21.4087 13.5247 20.8901C13.2666 20.0827 12.5096 19.5 11.6191 19.5C10.7286 19.5 9.97161 20.0827 9.7135 20.8901C9.54771 21.4087 8.99747 21.6994 8.47563 21.544C6.6309 20.9948 4.9905 19.9757 3.69248 18.6269C3.33731 18.2578 3.31842 17.68 3.64872 17.2886C3.94277 16.9401 4.11908 16.4919 4.11908 16C4.11908 14.8954 3.22365 14 2.11908 14C2.05146 14 1.98502 14.0033 1.91986 14.0097C1.41016 14.0598 0.944998 13.7167 0.84236 13.2149C0.695847 12.4986 0.61908 11.7577 0.61908 11C0.61908 9.85188 0.795316 8.74302 1.12293 7.70003C1.25542 7.27823 1.64918 6.99349 2.09125 6.9998L2.11908 7C3.22365 7 4.11908 6.10457 4.11908 5C4.11908 4.68109 4.04516 4.38228 3.91447 4.11721C3.71911 3.72098 3.8069 3.2435 4.13043 2.94266C5.40164 1.76064 6.95437 0.874979 8.67834 0.397755ZM5.98741 3.97927C6.07337 4.30568 6.11908 4.64794 6.11908 5C6.11908 6.95683 4.71393 8.58548 2.85758 8.93197C2.7017 9.5952 2.61908 10.2874 2.61908 11C2.61908 11.3516 2.6392 11.6982 2.67829 12.0388C4.6227 12.3108 6.11908 13.9806 6.11908 16C6.11908 16.6393 5.96858 17.2445 5.70137 17.7811C6.45138 18.4362 7.31051 18.9686 8.24739 19.3474C8.95767 18.237 10.2015 17.5 11.6191 17.5C13.0367 17.5 14.2805 18.237 14.9908 19.3474C15.9277 18.9686 16.7868 18.4362 17.5368 17.7811C17.2696 17.2445 17.1191 16.6393 17.1191 16C17.1191 13.9806 18.6155 12.3108 20.5599 12.0388C20.599 11.6982 20.6191 11.3516 20.6191 11C20.6191 10.2874 20.5365 9.59521 20.3806 8.93196C18.5242 8.58547 17.1191 6.95683 17.1191 5C17.1191 4.64794 17.1648 4.30568 17.2507 3.97927C16.493 3.37057 15.6352 2.8824 14.7064 2.54322C13.9735 3.43186 12.8632 4.00001 11.6191 4.00001C10.375 4.00001 9.26461 3.43186 8.53174 2.54322C7.60294 2.8824 6.74514 3.37057 5.98741 3.97927ZM7.11908 11C7.11908 8.51472 9.13379 6.5 11.6191 6.5C14.1044 6.5 16.1191 8.51472 16.1191 11C16.1191 13.4853 14.1044 15.5 11.6191 15.5C9.13379 15.5 7.11908 13.4853 7.11908 11ZM11.6191 8.5C10.2384 8.5 9.11908 9.61929 9.11908 11C9.11908 12.3807 10.2384 13.5 11.6191 13.5C12.9998 13.5 14.1191 12.3807 14.1191 11C14.1191 9.61929 12.9998 8.5 11.6191 8.5Z" fill="#454545"/>
</svg>
