<svg width="24" height="20" viewBox="0 0 24 20" fill="none" xmlns="http://www.w3.org/2000/svg">
<path fill-rule="evenodd" clip-rule="evenodd" d="M5.44489 0.930097C5.85169 1.33689 5.85169 1.99644 5.44489 2.40324L4.09813 3.75H22.4167C22.992 3.75 23.4583 4.21637 23.4583 4.79167C23.4583 5.36696 22.992 5.83333 22.4167 5.83333H4.09813L5.44489 7.1801C5.85169 7.58689 5.85169 8.24644 5.44489 8.65324C5.0381 9.06003 4.37855 9.06003 3.97175 8.65324L0.846754 5.52824C0.439957 5.12144 0.439957 4.46189 0.846754 4.0551L3.97175 0.930097C4.37855 0.523301 5.0381 0.523301 5.44489 0.930097ZM18.5551 11.3468C18.9619 10.94 19.6214 10.94 20.0282 11.3468L23.1532 14.4718C23.56 14.8786 23.56 15.5381 23.1532 15.9449L20.0282 19.0699C19.6214 19.4767 18.9619 19.4767 18.5551 19.0699C18.1483 18.6631 18.1483 18.0036 18.5551 17.5968L19.9018 16.25H1.58332C1.00803 16.25 0.541657 15.7836 0.541657 15.2083C0.541657 14.633 1.00803 14.1667 1.58332 14.1667H19.9018L18.5551 12.8199C18.1483 12.4131 18.1483 11.7536 18.5551 11.3468Z" fill="#D4D4D4"/>
</svg>
